<svg xmlns="http://www.w3.org/2000/svg" width="1400" height="292" viewBox="0 0 1400 292" version="1.1"><path d="M 62.209 13.215 L 62 23.930 51.750 24.254 L 41.500 24.578 51.781 24.789 C 59.533 24.948, 62.188 24.675, 62.570 23.679 C 62.849 22.952, 62.929 17.890, 62.748 12.429 L 62.419 2.500 62.209 13.215 M 138.212 13.750 L 138 25 147.250 24.794 L 156.500 24.589 147.783 24.256 L 139.067 23.923 138.746 13.212 L 138.425 2.500 138.212 13.750 M 309.365 12.500 C 309.368 18, 309.536 20.122, 309.738 17.216 C 309.941 14.311, 309.939 9.811, 309.734 7.216 C 309.528 4.622, 309.363 7, 309.365 12.500 M 718 13.500 L 718 24 708.500 24 L 699 24 699 45 L 699 66 742.750 65.761 L 786.500 65.522 743.250 65.250 L 700 64.979 700 45.026 L 700 25.072 709.750 24.786 L 719.500 24.500 719.784 13.750 C 719.966 6.832, 719.699 3, 719.034 3 C 718.388 3, 718 6.938, 718 13.500 M 768.444 13.500 L 768.500 24.500 777 24.558 L 785.500 24.617 777.283 24.270 L 769.067 23.923 768.728 13.212 L 768.388 2.500 768.444 13.500 M 859.444 13.500 L 859.500 24.500 868 24.558 L 876.500 24.617 868.283 24.270 L 860.067 23.923 859.728 13.212 L 859.388 2.500 859.444 13.500 M 989.500 4.665 C 994.133 7.113, 996.123 9.153, 998.119 13.500 C 999.130 15.700, 999.966 16.779, 999.978 15.898 C 1000.029 12.152, 991.135 2.912, 987.602 3.040 C 986.996 3.062, 987.850 3.793, 989.500 4.665 M 1198.444 13.500 L 1198.500 24.500 1207.753 24.560 L 1217.005 24.619 1208.036 24.272 L 1199.067 23.926 1198.728 13.213 L 1198.388 2.500 1198.444 13.500 M 1377.107 4.371 C 1376.093 5.593, 1376.210 5.758, 1377.792 5.344 C 1379.360 4.934, 1380.105 5.932, 1381.983 10.955 C 1383.240 14.316, 1384.449 16.884, 1384.671 16.663 C 1385.275 16.058, 1381.057 5.694, 1379.598 4.200 C 1378.557 3.134, 1378.108 3.165, 1377.107 4.371 M 602.456 7.905 C 611.863 12.717, 619.733 20.054, 624.548 28.500 C 626.430 31.800, 627.972 34.050, 627.975 33.500 C 627.989 31.158, 621.364 21.250, 616.832 16.837 C 612.008 12.138, 601.920 5.873, 597 4.522 C 595.625 4.144, 598.080 5.666, 602.456 7.905 M 362.380 7.860 C 356.930 10.865, 347.760 18.093, 348.481 18.814 C 348.719 19.052, 350.928 17.473, 353.391 15.305 C 355.854 13.137, 360.486 9.943, 363.685 8.208 C 366.883 6.473, 369.050 5.049, 368.500 5.045 C 367.950 5.040, 365.196 6.307, 362.380 7.860 M 525.110 8.750 C 518.659 12.564, 508.968 22.087, 505.693 27.831 C 502.845 32.828, 504.364 31.531, 508.296 25.609 C 512.575 19.165, 519.828 12.689, 527.724 8.262 C 530.901 6.481, 533.040 5.018, 532.477 5.012 C 531.915 5.005, 528.600 6.688, 525.110 8.750 M 1351.643 8.232 C 1351.904 8.654, 1353.425 9, 1355.023 9 L 1357.928 9 1358.214 18.750 C 1358.497 28.407, 1358.524 28.500, 1361 28.500 C 1363.475 28.500, 1363.503 28.403, 1363.785 18.811 L 1364.071 9.121 1367.285 8.721 C 1370.407 8.332, 1370.391 8.315, 1366.750 8.160 L 1363 8 1363 18 C 1363 27.333, 1362.867 28, 1361 28 C 1359.135 28, 1359 27.333, 1359 18.105 L 1359 8.210 1355.084 7.837 C 1352.930 7.631, 1351.382 7.809, 1351.643 8.232 M 440 8.449 C 440 8.724, 441.404 9.675, 443.120 10.562 C 444.836 11.449, 448.510 14.387, 451.285 17.089 C 454.060 19.792, 456.486 21.848, 456.676 21.657 C 457.317 21.016, 446.414 11.265, 443.192 9.599 C 441.436 8.691, 440 8.174, 440 8.449 M 1058.390 10.599 C 1050.516 15.862, 1043.159 24.789, 1041.578 31 C 1041.228 32.375, 1042.134 31.250, 1043.590 28.500 C 1047.473 21.172, 1052.260 15.683, 1057.961 12.025 C 1062.444 9.149, 1063.779 8, 1062.640 8 C 1062.441 8, 1060.529 9.170, 1058.390 10.599 M 1143 9.721 C 1148.250 13.457, 1154.401 19.674, 1157.127 24 C 1158.686 26.475, 1159.971 28.154, 1159.981 27.730 C 1160.058 24.594, 1148.175 11.609, 1142.938 9.107 L 1140.500 7.942 1143 9.721 M 1338.769 25.248 C 1339.236 39.534, 1339.658 40.925, 1339.832 28.750 C 1339.924 22.287, 1339.662 16.999, 1339.250 16.998 C 1338.838 16.996, 1338.621 20.709, 1338.769 25.248 M 999.769 26.248 C 1000.236 40.534, 1000.658 41.925, 1000.832 29.750 C 1000.924 23.287, 1000.663 17.999, 1000.250 17.998 C 999.837 17.996, 999.621 21.709, 999.769 26.248 M 249.888 24.293 C 250.327 24.729, 254.469 24.951, 259.093 24.785 L 267.500 24.485 258.295 23.992 C 253.233 23.722, 249.450 23.857, 249.888 24.293 M 300.500 24 L 291.500 24.622 300.750 24.811 C 306.376 24.926, 310 24.608, 310 24 C 310 23.450, 309.887 23.085, 309.750 23.189 C 309.613 23.293, 305.450 23.658, 300.500 24 M 415.526 24.043 C 415.852 24.569, 416.712 25, 417.439 25 C 418.165 25, 421.738 26.499, 425.380 28.332 C 432.186 31.758, 434.528 31.965, 428.744 28.630 C 424.516 26.192, 414.763 22.807, 415.526 24.043 M 819.500 24 L 810.500 24.622 819.191 24.811 C 824.122 24.918, 828.149 24.567, 828.500 24 C 828.840 23.450, 828.979 23.085, 828.809 23.189 C 828.639 23.293, 824.450 23.658, 819.500 24 M 5.280 24.736 C 7.909 24.943, 11.959 24.940, 14.280 24.731 C 16.601 24.521, 14.450 24.352, 9.500 24.355 C 4.550 24.358, 2.651 24.530, 5.280 24.736 M 157.448 56.500 C 157.447 74.650, 157.582 82.216, 157.748 73.314 C 157.913 64.411, 157.914 49.561, 157.749 40.314 C 157.583 31.066, 157.448 38.350, 157.448 56.500 M 185.280 24.736 C 187.909 24.943, 191.959 24.940, 194.280 24.731 C 196.601 24.521, 194.450 24.352, 189.500 24.355 C 184.550 24.358, 182.651 24.530, 185.280 24.736 M 268.448 57 C 268.448 75.425, 268.583 82.963, 268.748 73.750 C 268.913 64.537, 268.913 49.463, 268.748 40.250 C 268.583 31.037, 268.448 38.575, 268.448 57 M 290.450 58.500 C 290.451 77.750, 290.585 85.483, 290.749 75.685 C 290.913 65.888, 290.912 50.138, 290.748 40.685 C 290.584 31.233, 290.450 39.250, 290.450 58.500 M 663.280 24.736 C 665.909 24.943, 669.959 24.940, 672.280 24.731 C 674.601 24.521, 672.450 24.352, 667.500 24.355 C 662.550 24.358, 660.651 24.530, 663.280 24.736 M 677.468 81.500 C 677.468 113.400, 677.595 126.595, 677.749 110.821 C 677.904 95.048, 677.904 68.948, 677.750 52.821 C 677.595 36.695, 677.468 49.600, 677.468 81.500 M 787.425 45 C 787.425 56.825, 787.569 61.663, 787.746 55.750 C 787.923 49.838, 787.923 40.163, 787.746 34.250 C 787.569 28.338, 787.425 33.175, 787.425 45 M 809.242 82.184 L 809 140.867 819.002 141.184 C 824.503 141.358, 829.003 141.162, 829.002 140.750 C 829.001 140.338, 824.729 140, 819.508 140 L 810.016 140 809.750 81.750 L 809.484 23.500 809.242 82.184 M 878 82 L 878 140 870 140 C 865.600 140, 861.999 140.338, 861.998 140.750 C 861.996 141.162, 865.821 141.354, 870.498 141.177 L 879 140.853 879 82.427 C 879 50.292, 878.775 24, 878.500 24 C 878.225 24, 878 50.100, 878 82 M 919.684 24.748 C 930.235 24.910, 947.785 24.911, 958.684 24.749 C 969.583 24.587, 960.950 24.455, 939.500 24.455 C 918.050 24.454, 909.133 24.587, 919.684 24.748 M 1259.250 24.749 C 1269.563 24.911, 1286.438 24.911, 1296.750 24.749 C 1307.063 24.586, 1298.625 24.453, 1278 24.453 C 1257.375 24.453, 1248.938 24.586, 1259.250 24.749 M 1316.780 30.248 C 1317.255 40.875, 1317.693 41.899, 1317.850 32.750 C 1317.933 27.938, 1317.662 23.999, 1317.250 23.998 C 1316.838 23.997, 1316.626 26.810, 1316.780 30.248 M 373.913 28.840 C 369.335 31.743, 359.958 41.650, 360.052 43.483 C 360.081 44.042, 360.869 43.379, 361.802 42.009 C 365.463 36.638, 370.632 31.679, 375.453 28.914 C 378.229 27.322, 380.026 26.015, 379.446 26.009 C 378.866 26.004, 376.376 27.278, 373.913 28.840 M 535.500 30.772 C 530.801 34.308, 521.986 45.790, 522.012 48.341 C 522.019 48.978, 523.076 47.661, 524.361 45.414 C 528.470 38.229, 531.370 34.874, 536.913 30.890 C 539.890 28.751, 541.915 27.002, 541.413 27.005 C 540.911 27.008, 538.250 28.703, 535.500 30.772 M 1070.228 30.777 C 1066.445 33.926, 1062.999 38.831, 1063.046 41 C 1063.064 41.825, 1063.676 41.129, 1064.406 39.452 C 1065.136 37.776, 1067.882 34.514, 1070.507 32.202 C 1075.736 27.600, 1075.499 26.390, 1070.228 30.777 M 596.393 32.087 C 598.534 33.899, 601.571 37.409, 603.143 39.886 C 604.714 42.364, 606 43.954, 606 43.418 C 606 41.047, 598.028 31.616, 594.500 29.814 C 593.400 29.252, 594.252 30.275, 596.393 32.087 M 1160 29.507 C 1160 29.850, 1160.518 31.100, 1161.152 32.284 C 1161.785 33.467, 1162.621 38.050, 1163.008 42.468 C 1163.672 50.040, 1163.721 50.168, 1163.856 44.693 C 1164.006 38.640, 1162.390 30.359, 1160.877 29.424 C 1160.395 29.126, 1160 29.163, 1160 29.507 M 335.736 38.709 C 333.716 43.764, 330.924 53.257, 331.335 53.669 C 331.729 54.062, 337.902 35.628, 337.517 35.209 C 337.371 35.048, 336.569 36.623, 335.736 38.709 M 466.710 50 C 467.211 51.915, 466.741 52, 455.690 52 C 445.537 52, 444.092 51.789, 443.689 50.250 C 443.345 48.933, 443.203 49.057, 443.116 50.750 C 443.002 52.970, 443.169 53, 455.500 53 L 468 53 468 50.500 C 468 49.125, 467.592 48, 467.094 48 C 466.595 48, 466.423 48.900, 466.710 50 M 607.336 50 L 607.500 52.500 619.750 52.781 C 631.947 53.060, 631.999 53.052, 631.884 50.781 C 631.798 49.087, 631.650 48.950, 631.311 50.250 C 630.909 51.787, 629.472 52, 619.496 52 C 608.528 52, 608.123 51.923, 607.656 49.750 C 607.230 47.767, 607.192 47.797, 607.336 50 M 1064 53.769 C 1064 56.032, 1076.297 65.037, 1077.603 63.730 C 1077.833 63.501, 1076.194 62.489, 1073.961 61.482 C 1071.728 60.476, 1068.574 58.140, 1066.951 56.291 C 1065.328 54.443, 1064 53.308, 1064 53.769 M 971.750 59.732 C 974.087 59.943, 977.913 59.943, 980.250 59.732 C 982.587 59.522, 980.675 59.349, 976 59.349 C 971.325 59.349, 969.413 59.522, 971.750 59.732 M 1302 62.986 L 1302 66.972 1270.750 67.251 L 1239.500 67.530 1271.149 67.765 L 1302.799 68 1303.157 63.500 C 1303.353 61.025, 1303.174 59, 1302.757 59 C 1302.341 59, 1302 60.794, 1302 62.986 M 1324 79.500 L 1324 100 1313.500 100 L 1303 100 1303 94.500 L 1303 89 1271.250 89.235 L 1239.500 89.470 1270.750 89.749 L 1302 90.028 1302 95.514 L 1302 101 1313.500 101 L 1325 101 1325 80 C 1325 68.450, 1324.775 59, 1324.500 59 C 1324.225 59, 1324 68.225, 1324 79.500 M 1041.010 60.800 C 1040.983 64.410, 1048.184 74.589, 1053.319 78.198 C 1055.273 79.571, 1054.464 78.436, 1051.221 75.253 C 1048.318 72.404, 1044.834 67.694, 1043.481 64.787 C 1042.127 61.879, 1041.015 60.085, 1041.010 60.800 M 916.813 67.749 C 925.785 67.914, 940.185 67.914, 948.813 67.748 C 957.441 67.581, 950.100 67.446, 932.500 67.446 C 914.900 67.447, 907.841 67.583, 916.813 67.749 M 1148.506 81.849 C 1157.306 86.229, 1164.079 92.357, 1167.639 99.160 C 1168.888 101.547, 1169.926 103.050, 1169.945 102.500 C 1170.025 100.278, 1163.847 91.019, 1160.374 88.157 C 1156.304 84.802, 1146.930 79.617, 1143 78.546 C 1141.625 78.171, 1144.103 79.658, 1148.506 81.849 M 699 114 L 699 141 708.333 141 C 713.467 141, 717.854 141.186, 718.083 141.412 C 718.312 141.639, 718.358 146.351, 718.184 151.882 L 717.868 161.940 689.434 161.720 C 673.795 161.599, 661 161.844, 661 162.265 C 661 162.686, 674.163 162.911, 690.250 162.765 L 719.500 162.500 719.500 151.500 L 719.500 140.500 709.750 140.214 L 700 139.928 700 113.964 L 700 88 743.500 88 L 787 88 787 114 L 787 140 778.467 140 L 769.934 140 770.217 151.250 L 770.500 162.500 799.750 162.765 C 815.837 162.911, 829 162.686, 829 162.265 C 829 161.844, 816.063 161.500, 800.250 161.500 L 771.500 161.500 771.215 151.250 L 770.930 141 779.465 141 L 788 141 788 114 L 788 87 743.500 87 L 699 87 699 114 M 911.500 89.709 C 939.123 90.414, 964.002 90.434, 964.001 89.750 C 964 89.338, 949.712 89.096, 932.250 89.214 C 914.788 89.331, 905.450 89.554, 911.500 89.709 M 1126.478 97.964 C 1126.753 98.409, 1128.445 99.060, 1130.239 99.410 C 1135.438 100.424, 1143.239 105.205, 1145.718 108.898 C 1146.973 110.767, 1148 111.795, 1148 111.183 C 1148 109.066, 1141.960 103.202, 1137.738 101.219 C 1132.627 98.819, 1125.783 96.841, 1126.478 97.964 M 968.789 100.741 C 972.248 100.937, 977.648 100.936, 980.789 100.738 C 983.930 100.540, 981.100 100.380, 974.500 100.382 C 967.900 100.384, 965.330 100.546, 968.789 100.741 M 520.043 111 C 519.965 113.839, 525.738 124.508, 529.868 129.157 C 532.144 131.718, 535.997 134.980, 538.431 136.407 C 544.436 139.926, 545.501 139.704, 539.839 136.113 C 530.918 130.455, 526.665 125.337, 522.443 115.175 C 521.146 112.054, 520.066 110.175, 520.043 111 M 356 111.905 C 356 115.375, 362.650 126.325, 367.601 131.007 C 372.679 135.809, 381.741 140.997, 385 140.966 C 385.825 140.959, 383.977 139.914, 380.892 138.646 C 370.374 134.319, 364.754 128.822, 359.377 117.604 C 357.520 113.728, 356 111.164, 356 111.905 M 442.624 115.130 C 441.800 119.250, 442.595 120.120, 443.484 116.072 L 444.159 113 455.696 113 C 466.741 113, 467.211 113.085, 466.710 115 C 466.423 116.100, 466.626 117, 467.163 117 C 467.700 117, 467.995 115.987, 467.820 114.750 C 467.511 112.576, 467.090 112.491, 455.381 112.220 L 443.262 111.941 442.624 115.130 M 607.459 113.067 C 607.096 113.653, 607.070 114.403, 607.400 114.733 C 607.730 115.063, 608 114.808, 608 114.167 C 608 112.457, 630.647 112.538, 631.338 114.250 C 631.639 114.997, 631.874 114.795, 631.921 113.750 C 631.992 112.177, 630.795 112, 620.059 112 C 612.680 112, 607.866 112.408, 607.459 113.067 M 160.054 117.145 C 159.990 119.102, 163.986 132.347, 164.489 131.845 C 164.680 131.653, 163.773 127.897, 162.472 123.498 C 161.171 119.099, 160.083 116.240, 160.054 117.145 M 183.602 120 C 184.619 124.199, 188.724 130.550, 192.646 133.994 C 196.548 137.420, 203.444 140.990, 206 140.908 C 206.825 140.881, 205.875 140.261, 203.890 139.530 C 195.086 136.290, 189.049 130.626, 184.970 121.779 C 183.885 119.426, 183.269 118.625, 183.602 120 M 440.040 122.904 C 438.725 126.078, 433.103 132.422, 429 135.361 C 426.548 137.118, 426.557 137.120, 429.500 135.444 C 431.150 134.504, 433.555 132.782, 434.845 131.618 C 437.522 129.200, 442.489 121.155, 441.756 120.423 C 441.488 120.155, 440.716 121.272, 440.040 122.904 M 1033.593 122.449 C 1030.932 124.625, 1030.785 125.067, 1031.865 127.675 C 1032.515 129.242, 1034.174 131.869, 1035.553 133.512 C 1037.656 136.019, 1037.572 135.704, 1035.030 131.554 C 1033.363 128.834, 1032 126.225, 1032 125.756 C 1032 125.288, 1033.237 123.815, 1034.750 122.484 C 1038.293 119.365, 1037.398 119.338, 1033.593 122.449 M 117.384 124.441 C 117.080 125.234, 116.982 129.054, 117.166 132.932 L 117.500 139.982 79 140.259 L 40.500 140.536 79.500 140.518 L 118.500 140.500 118.790 132.283 L 119.080 124.067 129.790 123.746 L 140.500 123.425 129.219 123.212 C 120.177 123.042, 117.827 123.286, 117.384 124.441 M 988.500 123.930 L 999.500 124.500 999.500 135.751 C 999.500 141.939, 999.852 147.002, 1000.282 147.001 C 1000.712 147.001, 1000.937 141.713, 1000.782 135.250 L 1000.500 123.500 989 123.430 L 977.500 123.360 988.500 123.930 M 1317 131.456 L 1317 139.977 1278.250 140.250 L 1239.500 140.524 1278.750 140.762 L 1318 141 1318 132.500 L 1318 124 1328.559 124 L 1339.118 124 1338.809 136.002 C 1338.639 142.603, 1338.851 148.003, 1339.281 148.002 C 1339.710 148.001, 1339.935 142.488, 1339.781 135.750 L 1339.500 123.500 1328.250 123.217 L 1317 122.934 1317 131.456 M 257.133 130.085 C 252.388 135.510, 247.893 138.214, 239.749 140.541 C 235.447 141.771, 235.183 141.958, 238.285 141.578 C 246.404 140.584, 257.562 133.424, 260.998 127.004 C 262.567 124.072, 261.984 124.537, 257.133 130.085 M 600.174 129.041 C 598.345 131.244, 594.520 134.382, 591.674 136.014 C 586.283 139.106, 585.869 140.153, 591.109 137.443 C 594.741 135.566, 601.727 129.379, 603.088 126.836 C 604.566 124.074, 603.847 124.618, 600.174 129.041 M 461.593 133.546 C 458.768 140.031, 451.503 148.685, 444.500 153.905 L 441.500 156.142 444.827 154.321 C 450.024 151.476, 458.465 142.003, 461.946 135.107 C 463.687 131.658, 464.969 128.406, 464.794 127.882 C 464.619 127.358, 463.179 129.906, 461.593 133.546 M 501 128.569 C 501 130.315, 507.513 140.354, 511.579 144.877 C 519.953 154.190, 533.254 161.921, 543.500 163.428 C 546.361 163.849, 545.725 163.486, 541.269 162.154 C 526.181 157.647, 514.467 149.205, 507.090 137.524 C 504.840 133.963, 503 130.615, 503 130.084 C 503 129.553, 502.550 128.840, 502 128.500 C 501.450 128.160, 501 128.191, 501 128.569 M 282.556 131.825 C 282.211 132.911, 280.131 136.658, 277.933 140.150 C 275.458 144.084, 274.923 145.359, 276.526 143.500 C 279.481 140.073, 284.372 131.039, 283.659 130.325 C 283.397 130.063, 282.900 130.738, 282.556 131.825 M 340.557 135.927 C 342.032 138.637, 344.616 142.125, 346.300 143.677 C 349.195 146.347, 349.168 146.256, 345.805 142 C 343.849 139.525, 341.506 136.037, 340.599 134.250 C 339.691 132.463, 338.707 131, 338.412 131 C 338.117 131, 339.082 133.217, 340.557 135.927 M 625.420 135.240 C 624.379 137.583, 620.058 142.990, 615.818 147.256 C 611.578 151.522, 608.998 154.536, 610.083 153.955 C 615.600 151.003, 629.550 133.216, 627.756 131.422 C 627.512 131.179, 626.461 132.897, 625.420 135.240 M 165 133.843 C 165 134.307, 167.228 137.859, 169.951 141.736 C 174.399 148.069, 180.927 154.439, 185 156.419 C 185.825 156.820, 185.150 156.130, 183.500 154.886 C 178.017 150.752, 172.031 144.024, 168.901 138.479 C 165.901 133.163, 165 132.092, 165 133.843 M 1167.518 135.945 C 1167.152 137.097, 1165.276 140.105, 1163.350 142.629 C 1161.423 145.153, 1160.377 147.041, 1161.024 146.825 C 1162.544 146.319, 1169.490 135.157, 1168.747 134.414 C 1168.437 134.103, 1167.883 134.792, 1167.518 135.945 M 1045.029 144.123 C 1051.016 150.049, 1061.036 156.769, 1066.500 158.523 C 1067.600 158.876, 1065.790 157.657, 1062.479 155.814 C 1054.532 151.390, 1050.642 148.607, 1043.918 142.538 C 1039.564 138.608, 1039.808 138.956, 1045.029 144.123 M 2 151.500 L 2 163 62.750 162.758 L 123.500 162.516 63.250 162.250 L 3 161.984 3 151.533 L 3 141.081 11.250 140.744 L 19.500 140.407 10.750 140.204 L 2 140 2 151.500 M 665.280 140.736 C 667.909 140.943, 671.959 140.940, 674.280 140.731 C 676.601 140.521, 674.450 140.352, 669.500 140.355 C 664.550 140.358, 662.651 140.530, 665.280 140.736 M 919.684 140.748 C 930.235 140.910, 947.785 140.911, 958.684 140.749 C 969.583 140.587, 960.950 140.455, 939.500 140.455 C 918.050 140.454, 909.133 140.587, 919.684 140.748 M 1201 151.500 L 1201 163 1261.559 163 C 1298.071 163, 1321.893 162.635, 1321.551 162.082 C 1321.215 161.538, 1296.730 161.232, 1261.492 161.332 L 1202 161.500 1202 151.290 L 1202 141.081 1210.250 140.744 L 1218.500 140.407 1209.750 140.204 L 1201 140 1201 151.500 M 997.473 152.431 C 995.954 155.481, 994.076 157.216, 989.973 159.358 C 986.193 161.333, 985.428 162.005, 987.500 161.531 C 989.150 161.153, 991.963 159.731, 993.751 158.370 C 996.930 155.951, 1000.429 150.607, 999.811 149.113 C 999.640 148.700, 998.588 150.193, 997.473 152.431 M 1156.475 150.041 C 1155.329 151.895, 1147.671 156.306, 1140.500 159.241 C 1136.650 160.817, 1134.850 161.844, 1136.500 161.522 C 1141.150 160.617, 1153.270 154.406, 1155.945 151.559 C 1157.267 150.151, 1158.072 149, 1157.733 149 C 1157.395 149, 1156.829 149.468, 1156.475 150.041 M 266.941 152.488 C 266.123 153.306, 262.539 155.546, 258.977 157.465 C 255.414 159.384, 252.887 160.965, 253.360 160.977 C 254.931 161.019, 265.860 154.812, 267.599 152.890 C 269.620 150.658, 269.093 150.335, 266.941 152.488 M 862 162.250 C 862 162.662, 889.300 163, 922.667 163 C 956.033 163, 983.095 162.761, 982.803 162.469 C 981.964 161.631, 862 161.413, 862 162.250 M 215 165.250 C 215 165.662, 219.050 166, 224 166 C 228.950 166, 233 165.662, 233 165.250 C 233 164.838, 228.950 164.500, 224 164.500 C 219.050 164.500, 215 164.838, 215 165.250 M 392 165.250 C 392 165.662, 396.125 166, 401.167 166 C 406.208 166, 410.070 165.737, 409.748 165.415 C 408.872 164.538, 391.999 164.382, 392 165.250 M 556 165.250 C 556 165.662, 560.050 166, 565 166 C 569.950 166, 574 165.662, 574 165.250 C 574 164.838, 569.950 164.500, 565 164.500 C 560.050 164.500, 556 164.838, 556 165.250 M 1096 165.250 C 1096 165.662, 1100.275 166, 1105.500 166 C 1110.725 166, 1115 165.662, 1115 165.250 C 1115 164.838, 1110.725 164.500, 1105.500 164.500 C 1100.275 164.500, 1096 164.838, 1096 165.250 M 691.124 230.157 C 689.945 232.993, 689.149 235.482, 689.354 235.687 C 689.559 235.893, 690.721 233.751, 691.936 230.928 C 693.854 226.468, 694.459 225.855, 696.542 226.253 C 697.861 226.505, 698.702 226.326, 698.411 225.856 C 698.120 225.385, 696.844 225, 695.574 225 C 693.739 225, 692.828 226.057, 691.124 230.157 M 284.607 227.582 C 284.273 228.452, 284 242.762, 284 259.382 C 284 281.552, 284.320 289.920, 285.200 290.800 C 286.033 291.633, 290.388 291.937, 299.450 291.794 L 312.500 291.589 299 291.044 L 285.500 290.500 285.235 259.620 C 285.047 237.668, 285.299 228.344, 286.108 227.370 C 286.811 226.523, 286.858 226, 286.229 226 C 285.671 226, 284.941 226.712, 284.607 227.582 M 313.251 227.327 C 315.863 228.077, 318.904 229.508, 320.007 230.506 C 321.110 231.504, 322.258 232.075, 322.559 231.775 C 323.565 230.768, 316.127 226.893, 312.291 226.425 C 308.818 226.001, 308.898 226.077, 313.251 227.327 M 513 228.576 C 516.025 229.982, 519.625 232.115, 521 233.316 L 523.500 235.500 521.123 232.800 C 518.783 230.142, 511.225 225.991, 508.761 226.010 C 508.067 226.015, 509.975 227.170, 513 228.576 M 607.844 230.506 L 608.195 234.919 599.595 235.272 L 590.995 235.624 599.747 235.562 L 608.500 235.500 608.818 231.618 C 608.993 229.483, 608.767 227.367, 608.315 226.915 C 607.863 226.463, 607.651 228.079, 607.844 230.506 M 850.765 235.842 C 850.911 241.154, 851.136 247.426, 851.265 249.780 L 851.500 254.059 861 244.280 L 870.500 234.500 861.250 243.479 L 852 252.458 852 239.788 C 852 232.820, 851.663 226.908, 851.250 226.651 C 850.837 226.395, 850.619 230.531, 850.765 235.842 M 927.454 227.259 C 927.188 227.952, 927.090 242.689, 927.235 260.009 L 927.500 291.500 947.428 291.772 C 958.389 291.921, 967.705 291.696, 968.131 291.272 C 968.556 290.847, 959.689 290.638, 948.425 290.807 L 927.946 291.115 928.223 258.557 C 928.375 240.650, 928.373 225.999, 928.219 226 C 928.064 226, 927.720 226.567, 927.454 227.259 M 1009.454 227.259 C 1009.188 227.952, 1009.090 242.689, 1009.235 260.009 L 1009.500 291.500 1014.500 291.500 L 1019.500 291.500 1019.547 278.748 L 1019.593 265.997 1019.266 278.554 L 1018.939 291.112 1014.720 290.806 L 1010.500 290.500 1010.500 258.250 C 1010.500 240.512, 1010.373 226, 1010.219 226 C 1010.064 226, 1009.720 226.567, 1009.454 227.259 M 481.946 229.866 C 475.538 233.996, 467.921 243.110, 468.044 246.500 C 468.064 247.050, 468.795 246.150, 469.669 244.500 C 472.702 238.774, 478.217 232.917, 483.345 229.976 C 486.180 228.349, 488.026 227.015, 487.446 227.009 C 486.866 227.004, 484.391 228.290, 481.946 229.866 M 416.337 232.055 C 419.452 234.285, 422.016 236.423, 422.036 236.805 C 422.056 237.187, 423.230 238.850, 424.646 240.500 C 427.622 243.969, 426.813 241.999, 423.322 237.277 C 422.012 235.505, 418.960 232.692, 416.540 231.027 C 409.968 226.506, 409.797 227.372, 416.337 232.055 M 873.090 244.094 L 860.681 256.904 864.529 261.202 C 866.646 263.566, 868.855 265.668, 869.439 265.873 C 870.023 266.078, 868.488 264.159, 866.028 261.609 L 861.556 256.972 874.514 243.986 C 881.640 236.844, 887.028 231.064, 886.486 231.142 C 885.944 231.221, 879.916 237.049, 873.090 244.094 M 762.633 242.133 C 760.060 247.718, 758.112 252.446, 758.306 252.639 C 758.499 252.833, 760.762 248.420, 763.333 242.833 C 765.905 237.247, 767.852 232.519, 767.661 232.327 C 767.469 232.136, 765.207 236.549, 762.633 242.133 M 565.651 235.250 C 565.908 235.662, 569.459 236, 573.542 236 L 580.967 236 581.251 262.250 L 581.535 288.500 581.767 261.823 L 582 235.147 573.592 234.823 C 568.968 234.646, 565.394 234.838, 565.651 235.250 M 303.102 235.922 C 311.628 236.495, 315 237.827, 315 240.622 C 315 241.380, 315.466 242, 316.035 242 C 317.580 242, 315.431 238.416, 312.770 236.551 C 311.154 235.419, 308.385 235.047, 302.527 235.172 L 294.500 235.345 303.102 235.922 M 489.271 237.095 C 482.530 240.431, 475.829 249.389, 476.086 254.718 C 476.144 255.912, 476.424 255.675, 476.935 254 C 478.678 248.291, 482.305 242.792, 486.177 239.987 C 488.445 238.344, 490.881 237, 491.591 237 C 492.301 237, 493.160 236.550, 493.500 236 C 494.341 234.639, 494.113 234.698, 489.271 237.095 M 944.797 235.745 C 949.361 235.930, 956.561 235.929, 960.797 235.742 C 965.034 235.555, 961.300 235.404, 952.500 235.405 C 943.700 235.406, 940.234 235.559, 944.797 235.745 M 1040.219 237.052 C 1044.914 239.531, 1046.275 242.076, 1045.839 247.560 C 1045.649 249.951, 1045.843 251.557, 1046.270 251.130 C 1047.524 249.876, 1047.411 243.637, 1046.090 241.168 C 1044.869 238.887, 1039.375 234.972, 1037.500 235.048 C 1036.950 235.070, 1038.174 235.972, 1040.219 237.052 M 510.148 238.016 C 512.154 239.075, 515.416 241.837, 517.398 244.151 C 519.379 246.466, 520.984 247.941, 520.964 247.430 C 520.863 244.825, 510.433 235.932, 507.610 236.044 C 507 236.069, 508.141 236.956, 510.148 238.016 M 526.529 239.227 C 527.999 241.277, 530.032 245.552, 531.047 248.727 C 532.062 251.902, 532.917 253.793, 532.946 252.928 C 533.057 249.699, 529.825 242.222, 526.891 238.918 L 523.856 235.500 526.529 239.227 M 1019.444 246.500 L 1019.500 257.500 1028 257.558 L 1036.500 257.617 1028.283 257.270 L 1020.067 256.923 1019.728 246.212 L 1019.388 235.500 1019.444 246.500 M 369.160 239.308 C 367.311 241.536, 364.042 249.396, 364.089 251.500 C 364.114 252.600, 364.728 251.598, 365.455 249.273 C 366.181 246.948, 367.711 243.460, 368.854 241.523 C 370.975 237.929, 371.108 236.960, 369.160 239.308 M 1056.611 247.875 C 1055.846 253.641, 1051.496 260.185, 1046.448 263.163 C 1043.537 264.881, 1042.586 267, 1044.726 267 C 1045.060 267, 1045.048 266.714, 1044.699 266.365 C 1044.350 266.016, 1045.980 264.461, 1048.323 262.909 C 1053.361 259.572, 1056.767 253.978, 1057.641 247.606 C 1057.988 245.072, 1058.044 243, 1057.765 243 C 1057.486 243, 1056.967 245.194, 1056.611 247.875 M 680.352 256.650 C 675.767 268.290, 675.444 269.301, 677.396 265.920 C 679.577 262.143, 685.154 247.820, 684.642 247.309 C 684.402 247.069, 682.471 251.272, 680.352 256.650 M 941 253.664 C 951.818 254.393, 963.778 254.439, 963.349 253.750 C 963.092 253.338, 956.946 253.081, 949.691 253.180 C 942.436 253.279, 938.525 253.497, 941 253.664 M 668.438 260.500 C 672.001 269.920, 673.390 273, 674.076 273 C 674.515 273, 673.504 269.962, 671.829 266.250 C 668.920 259.804, 666.840 256.277, 668.438 260.500 M 851 276 L 851 291 847.200 291 C 845.110 291, 842.860 290.460, 842.200 289.800 C 841.288 288.888, 841 288.884, 841 289.781 C 841 291.244, 844.806 292.265, 848.629 291.828 L 851.500 291.500 851.777 276.650 C 852.037 262.762, 852.166 261.888, 853.777 263.150 C 855.333 264.369, 855.367 264.330, 854.128 262.750 C 853.373 261.788, 852.360 261, 851.878 261 C 851.395 261, 851 267.750, 851 276 M 950.250 261.747 C 942.962 261.918, 936.999 262.382, 936.998 262.779 C 936.997 263.176, 943.072 263.363, 950.498 263.196 C 958.103 263.025, 964 262.479, 964 261.946 C 964 261.426, 963.888 261.098, 963.750 261.218 C 963.612 261.338, 957.538 261.577, 950.250 261.747 M 374.010 264.685 C 373.961 270.656, 385.321 282.078, 391.210 281.978 C 391.920 281.966, 390.475 281.038, 388 279.916 C 381.952 277.174, 379.187 274.458, 376.377 268.500 C 375.081 265.750, 374.015 264.033, 374.010 264.685 M 418.377 268.016 C 416.473 272.773, 409.101 279.599, 404.861 280.530 C 403.209 280.893, 402.084 281.417, 402.361 281.695 C 402.639 281.972, 404.359 281.691, 406.183 281.069 C 409.413 279.968, 412.731 277.433, 416.212 273.407 C 418.047 271.285, 421.371 264, 420.505 264 C 420.218 264, 419.261 265.807, 418.377 268.016 M 521.698 266.068 C 520.499 270.843, 515.346 276.649, 509.895 279.365 C 506.987 280.814, 505.168 282, 505.853 282 C 507.871 282, 513.280 278.976, 516.342 276.136 C 519.570 273.141, 523.311 266.432, 522.728 264.683 C 522.514 264.041, 522.050 264.664, 521.698 266.068 M 661 265.559 C 661 266.999, 666.284 280.049, 666.700 279.634 C 667.092 279.241, 662.306 265.973, 661.471 265.138 C 661.212 264.879, 661 265.068, 661 265.559 M 1033.093 266.500 C 1033.087 267.050, 1035.876 272.900, 1039.291 279.500 L 1045.500 291.500 1050.390 291.810 C 1053.079 291.981, 1055.682 291.718, 1056.175 291.225 C 1056.702 290.698, 1054.823 290.516, 1051.602 290.783 L 1046.134 291.237 1039.619 278.368 C 1036.036 271.291, 1033.099 265.950, 1033.093 266.500 M 427.191 272.301 C 424.730 277.865, 419.643 283.624, 414.054 287.175 C 411.609 288.729, 410.046 290, 410.582 290 C 414.812 290, 426.094 278.143, 428.909 270.739 C 430.558 266.403, 429.290 267.556, 427.191 272.301 M 529.588 272.668 C 527.718 277.202, 521.981 283.879, 517 287.319 L 514.500 289.045 517.500 287.605 C 523.141 284.897, 532.903 272.164, 531.808 268.943 C 531.639 268.443, 530.640 270.120, 529.588 272.668 M 767.784 268.738 C 770.689 268.941, 775.189 268.939, 777.784 268.734 C 780.378 268.528, 778 268.363, 772.500 268.365 C 767 268.368, 764.878 268.536, 767.784 268.738 M 366 272.628 C 366 276.294, 379.761 290.009, 383.426 289.996 C 384.017 289.994, 382.925 289.048, 381 287.894 C 375.977 284.883, 372.148 281.147, 368.866 276.054 C 367.290 273.609, 366 272.067, 366 272.628 M 754.138 284 C 751.056 290.891, 750.949 291, 747.204 291 C 745.112 291, 742.833 290.438, 742.141 289.750 C 741.131 288.748, 741.017 288.856, 741.567 290.300 C 742.116 291.741, 743.172 292.040, 746.876 291.800 L 751.500 291.500 754.600 285 L 757.701 278.500 773.100 277.960 L 788.500 277.421 772.884 277.210 L 757.268 277 754.138 284 M 884.314 282.858 C 886.891 285.805, 889 288.820, 889 289.558 C 889 290.480, 887.200 291.022, 883.250 291.290 L 877.500 291.679 883.500 291.590 C 891.680 291.467, 891.996 289.338, 884.851 282.499 L 879.628 277.500 884.314 282.858 M 325.833 282.467 C 325.147 283.972, 322.330 286.490, 319.545 288.087 C 313.816 291.373, 314.096 292.012, 319.956 289.023 C 323.775 287.074, 328.761 281.428, 327.647 280.313 C 327.332 279.999, 326.516 280.968, 325.833 282.467 M 298.776 282.733 C 301.128 282.945, 304.728 282.942, 306.776 282.727 C 308.824 282.512, 306.900 282.339, 302.500 282.343 C 298.100 282.346, 296.424 282.522, 298.776 282.733 M 942.500 282.672 C 954.479 283.396, 968.777 283.439, 968.348 282.750 C 968.092 282.337, 961.046 282.083, 952.691 282.185 C 944.336 282.287, 939.750 282.506, 942.500 282.672 M 792.032 288.550 C 791.967 290.674, 794.508 292, 798.641 292 C 800.974 292, 803.125 291.606, 803.423 291.125 C 803.720 290.644, 801.928 290.479, 799.441 290.760 C 795.797 291.170, 794.640 290.903, 793.491 289.385 C 792.706 288.348, 792.049 287.973, 792.032 288.550" stroke="none" fill="#7d848c" fill-rule="evenodd"/><path d="M 379.284 2.533 C 362.942 6.636, 351.847 14.149, 343.149 27 C 337.340 35.583, 332.185 49.380, 330.447 61 C 328.049 77.028, 328.402 95.635, 331.347 108.500 C 331.725 110.150, 332.212 112.400, 332.429 113.500 C 333.166 117.229, 338.122 130.093, 340.253 133.806 C 345.359 142.705, 352.224 149.870, 361.032 155.494 C 365.249 158.188, 378.480 163.164, 382 163.381 C 383.375 163.466, 384.950 163.809, 385.500 164.143 C 387.265 165.217, 416.323 164.407, 421.500 163.140 C 442.713 157.949, 455.825 147.678, 462.775 130.810 C 464.432 126.789, 466.062 121.138, 466.399 118.250 L 467.011 113 455.664 113 L 444.317 113 443.072 117.250 C 441.331 123.192, 437.620 129.298, 433.770 132.554 C 429.396 136.253, 419.552 140.731, 414 141.548 C 407.858 142.452, 393.482 142.478, 388 141.595 C 377.696 139.935, 365.976 131.809, 360.664 122.644 C 357.624 117.397, 353.940 106.979, 353.431 102.183 C 353.215 100.157, 352.796 96.700, 352.500 94.500 C 351.675 88.384, 352.034 66.500, 352.959 66.500 C 353.073 66.500, 353.289 65.600, 353.439 64.500 C 355.495 49.427, 362.113 37.277, 372.278 29.914 C 378.438 25.452, 387.927 22.849, 399.449 22.462 C 404.922 22.279, 409.857 22.412, 410.418 22.758 C 410.978 23.105, 412.576 23.447, 413.968 23.519 C 425.571 24.122, 437.934 33.741, 442.125 45.428 L 444.482 52 455.789 52 L 467.097 52 466.507 47.750 C 465.604 41.246, 462.212 31.300, 459.315 26.666 C 452.168 15.231, 437.549 5.378, 423.439 2.486 C 421.272 2.042, 418.825 1.494, 418 1.269 C 417.175 1.044, 410.200 0.715, 402.500 0.539 C 390.491 0.264, 387.190 0.548, 379.284 2.533 M 552.830 0.504 C 552.595 0.739, 550.849 1.154, 548.951 1.425 C 531.329 3.950, 516.282 13.254, 507.147 27.275 C 503.231 33.285, 497.312 47.444, 496.393 53 C 496.165 54.375, 495.715 56.625, 495.391 58 C 493.566 65.759, 492.859 91.454, 494.222 100.500 C 498.461 128.637, 510.247 148.014, 528.674 157.141 C 540.708 163.102, 549.007 164.732, 566.163 164.506 C 583.323 164.279, 589.782 162.999, 601.821 157.443 C 611.435 153.006, 621.752 142.919, 625.956 133.846 C 628.994 127.288, 631.941 116.324, 631.235 114.206 C 630.787 112.860, 608.064 112.416, 607.918 113.750 C 606.407 127.529, 593.773 139.325, 578.007 141.677 C 573.324 142.376, 557.378 142.378, 553 141.681 C 535.630 138.915, 523.953 126.951, 518.912 106.756 C 516.535 97.234, 515.587 76.655, 517.127 68 C 517.666 64.975, 518.335 61.150, 518.616 59.500 C 520.225 50.029, 526.650 38.167, 533.217 32.546 C 537.867 28.566, 546.053 24.494, 551.595 23.405 C 556.272 22.486, 573.281 22.348, 577.500 23.195 C 592.681 26.245, 603.412 34.685, 606.811 46.249 L 608.500 51.997 619.677 51.999 C 632.783 52, 632.555 52.238, 629.720 41.500 C 624.533 21.852, 607.938 6.489, 587.500 2.415 C 586.400 2.196, 584.375 1.733, 583 1.387 C 580.082 0.651, 553.461 -0.128, 552.830 0.504 M 1091.681 0.653 C 1091.576 0.757, 1089.468 1.097, 1086.995 1.407 C 1071.704 3.324, 1056.252 10.816, 1049.249 19.707 C 1042.145 28.726, 1039.368 37.212, 1039.662 49 C 1040.147 68.449, 1053.888 82.539, 1078.250 88.567 C 1079.213 88.805, 1080.900 89.225, 1082 89.500 C 1086.165 90.541, 1088.608 91.046, 1092 91.566 C 1093.925 91.861, 1096.400 92.270, 1097.500 92.475 C 1099.603 92.868, 1104.789 93.679, 1110.250 94.471 C 1114.605 95.103, 1118.962 95.895, 1122 96.607 C 1123.375 96.930, 1125.625 97.382, 1127 97.612 C 1134.737 98.906, 1143.502 103.784, 1146.608 108.525 C 1149.254 112.563, 1149.216 120.743, 1146.523 126.681 C 1141.466 137.834, 1127.803 143.367, 1105.500 143.293 C 1094.856 143.257, 1089.922 142.388, 1081.214 139.011 C 1070.850 134.993, 1057.022 124.027, 1051.250 115.250 C 1050.436 114.013, 1049.340 113, 1048.814 113 C 1047.994 113, 1040.025 118.482, 1033.518 123.524 C 1031.552 125.047, 1031.556 125.100, 1033.997 129.700 C 1039.272 139.644, 1052.103 150.885, 1065.107 156.955 C 1068.623 158.597, 1075.653 161.016, 1080.729 162.331 C 1089.002 164.474, 1091.697 164.691, 1106.729 164.423 C 1126.046 164.079, 1125.899 164.098, 1136.500 160.539 C 1146.821 157.074, 1153.746 153.071, 1159.476 147.259 C 1164.007 142.664, 1169.561 132.884, 1170.415 128 C 1170.655 126.625, 1170.930 125.500, 1171.027 125.500 C 1171.124 125.500, 1171.300 121.563, 1171.419 116.750 C 1171.538 111.938, 1171.241 108, 1170.759 108 C 1170.277 108, 1170.114 107.624, 1170.399 107.164 C 1171.401 105.542, 1165.218 94.447, 1161.013 90.324 C 1154.397 83.836, 1142.768 78.482, 1126.500 74.434 C 1124.850 74.023, 1123.050 73.574, 1122.500 73.436 C 1120.742 72.993, 1114.568 71.835, 1112.500 71.559 C 1104.818 70.537, 1098.203 69.412, 1097.750 69.051 C 1097.515 68.864, 1096.073 68.588, 1090 67.569 C 1080.851 66.035, 1070.813 61.598, 1066.862 57.342 C 1059.956 49.901, 1061.579 37.253, 1070.266 30.818 C 1083.966 20.668, 1113.267 19.357, 1127.845 28.241 C 1138.231 34.572, 1141.700 42.815, 1139.632 56.250 L 1138.901 61 1149.982 61 C 1157.955 61, 1161.181 60.649, 1161.484 59.750 C 1163.554 53.608, 1163.479 39.507, 1161.342 33.118 C 1158.365 24.218, 1152.531 16.619, 1144.260 10.867 C 1139.707 7.700, 1129.119 3.376, 1123.778 2.502 C 1121.975 2.207, 1119.150 1.675, 1117.500 1.321 C 1114.850 0.751, 1092.169 0.165, 1091.681 0.653 M 0 13.500 L 0 24 9.500 24 L 19 24 19 82.500 L 19 141 11 141 L 3 141 3 151.529 L 3 162.058 65.250 161.779 L 127.500 161.500 131.722 158.755 C 138.292 154.483, 139.381 151.527, 139.821 136.750 L 140.201 124 129.641 124 L 119.081 124 118.790 132.250 L 118.500 140.500 79.750 140.762 L 41 141.023 41 82.512 L 41 24 51.500 24 L 62 24 62 13.500 L 62 3 31 3 L 0 3 0 13.500 M 139 13.500 L 139 24 148.541 24 L 158.081 24 158.040 62.750 C 157.995 106.236, 157.966 105.756, 161.446 119.425 C 168.017 145.229, 181.875 158.784, 206.539 163.531 C 216.121 165.375, 237.493 164.857, 246 162.574 C 267.828 156.717, 281.222 142.064, 287.004 117.718 C 289.935 105.380, 289.916 105.737, 289.926 62.750 L 289.936 24 299.301 24 C 304.452 24, 308.854 23.814, 309.083 23.588 C 309.312 23.361, 309.358 18.636, 309.184 13.088 L 308.867 3 278.870 3 L 248.872 3 249.186 13.250 L 249.500 23.500 259.341 23.787 L 269.182 24.075 268.713 63.287 C 268.217 104.835, 268.082 106.809, 265.032 117.014 C 261.365 129.287, 254.361 136.683, 242.649 140.650 C 237.106 142.528, 216.287 143.137, 208.500 141.649 C 197.506 139.548, 187.842 131.539, 184.041 121.379 C 182.084 116.149, 181.695 114.302, 180.273 103.500 C 179.494 97.574, 179.530 100.918, 179.791 58.250 L 180 24 189.500 24 L 199 24 199 13.500 L 199 3 169 3 L 139 3 139 13.500 M 658 13.500 L 658 24 668 24 L 678 24 678 82.500 L 678 141 669.465 141 L 660.930 141 661.215 151.250 L 661.500 161.500 689.685 161.706 L 717.869 161.913 718.185 151.869 C 718.358 146.345, 718.312 141.639, 718.083 141.412 C 717.854 141.186, 713.467 141, 708.333 141 L 699 141 699 114 L 699 87 743.500 87 L 788 87 788 114 L 788 141 779.465 141 L 770.930 141 771.215 151.250 L 771.500 161.500 800 161.500 L 828.500 161.500 828.500 151.500 L 828.500 141.500 818.750 141.214 L 809 140.928 809 82.500 L 809 24.072 818.750 23.786 L 828.500 23.500 828.785 13.250 L 829.070 3 799.035 3 L 769 3 769 13.500 L 769 24 778.500 24 L 788 24 788 45 L 788 66 743.500 66 L 699 66 699 45 L 699 24 708.500 24 L 718 24 718 13.500 L 718 3 688 3 L 658 3 658 13.500 M 860 13.486 L 860 24 869.500 24 L 879 24 879 82.460 L 879 140.919 870.750 141.210 L 862.500 141.500 862.500 151.500 L 862.500 161.500 923.643 161.714 L 984.786 161.929 990.105 159.214 C 998.267 155.050, 999.877 151.184, 999.666 136.252 L 999.500 124.500 988.750 124.216 L 978 123.932 978 132.466 L 978 141 939.500 141 L 901 141 901 115 L 901 89 932.332 89 L 963.665 89 963.208 94.500 L 962.752 100 974.397 100 L 986.041 100 985.771 79.968 L 985.500 59.935 974.500 59.736 L 963.500 59.537 963.500 63.770 L 963.500 68.003 932.250 68.001 L 901 68 901 46 L 901 24 939.500 24 L 978 24 978 32.500 L 978 41 989.053 41 L 1000.106 41 999.946 29.250 C 999.732 13.586, 997.827 8.995, 989.847 4.923 C 986.400 3.163, 982.643 3.056, 923.097 3.015 L 860 2.971 860 13.486 M 1199 13.486 L 1199 24 1208.500 24 L 1218 24 1218 82.500 L 1218 141 1210 141 L 1202 141 1202 151.250 L 1202.001 161.500 1264.320 161.369 C 1330.895 161.229, 1329.778 161.309, 1334.132 156.352 C 1337.981 151.970, 1338.775 148.650, 1338.940 136.250 L 1339.103 124 1328.552 124 L 1318 124 1318 132.500 L 1318 141 1279 141 L 1240 141 1240 115 L 1240 89 1271.500 89 L 1303 89 1303 94.500 L 1303 100 1313.500 100 L 1324 100 1324 79.465 L 1324 58.930 1313.750 59.215 L 1303.500 59.500 1303.193 63.750 L 1302.885 68 1271.443 68 L 1240 68 1240 46 L 1240 24 1279 24 L 1318 24 1318 32.500 L 1318 41 1328.552 41 L 1339.103 41 1338.940 28.750 C 1338.735 13.312, 1336.928 9.047, 1328.847 4.923 C 1325.400 3.163, 1321.643 3.056, 1262.097 3.015 L 1199 2.971 1199 13.486 M 1352.163 5.304 C 1350.611 7.174, 1351.684 8, 1355.667 8 L 1359 8 1359 18 C 1359 27.333, 1359.133 28, 1361 28 C 1362.867 28, 1363 27.333, 1363 18 L 1363 8 1366.573 8 C 1369.437 8, 1370.080 7.653, 1369.812 6.250 C 1369.532 4.785, 1368.162 4.453, 1361.393 4.212 C 1355.456 4.001, 1353.004 4.291, 1352.163 5.304 M 1376.923 5.250 C 1376.761 5.782, 1376.159 8.630, 1375.602 11.500 C 1375.282 13.150, 1374.786 15.625, 1374.500 17 C 1374.214 18.375, 1373.745 20.778, 1373.459 22.341 C 1373.173 23.903, 1372.841 25.676, 1372.720 26.281 C 1372.599 26.886, 1373.259 27.548, 1374.186 27.752 C 1375.415 28.022, 1376.160 27.088, 1376.931 24.311 C 1377.513 22.215, 1377.998 19.825, 1378.010 19 C 1378.021 18.175, 1378.407 16.906, 1378.867 16.180 C 1379.440 15.277, 1380.416 16.764, 1381.962 20.900 C 1385.324 29.888, 1386.505 30.361, 1389.375 23.872 C 1390.682 20.917, 1392.078 17.600, 1392.476 16.500 C 1393.196 14.511, 1393.205 14.511, 1393.990 16.540 C 1394.656 18.258, 1395.831 24.642, 1395.962 27.250 C 1395.983 27.663, 1396.940 28, 1398.089 28 C 1400.249 28, 1400.319 26.366, 1398.518 18 C 1398.222 16.625, 1397.764 14.375, 1397.500 13 C 1395.891 4.610, 1395.822 4.466, 1393.793 5.257 C 1393.082 5.534, 1391.217 9.235, 1389.650 13.480 C 1388.082 17.726, 1386.456 20.817, 1386.036 20.350 C 1385.617 19.882, 1384.016 16.238, 1382.479 12.250 C 1380.933 8.240, 1379.084 5, 1378.342 5 C 1377.604 5, 1376.966 5.112, 1376.923 5.250 M 387.112 227.048 C 370.234 232.565, 360.421 251.177, 365.386 268.256 C 368.124 277.673, 377.258 287.444, 385.775 290.067 C 392.512 292.142, 402.954 292.053, 408.698 289.873 C 415.703 287.213, 423.254 280.224, 426.673 273.237 C 430.055 266.322, 430.168 265.873, 430.250 259 C 430.509 237.151, 407.757 220.299, 387.112 227.048 M 489.669 227.129 C 478.288 231.211, 469.799 240.344, 467.479 251 C 464.128 266.395, 471.563 281.725, 485.745 288.664 C 498.853 295.077, 516.787 291.012, 525.440 279.668 C 531.998 271.070, 534.299 260.045, 531.547 250.413 C 528.524 239.833, 523.236 233.574, 513.311 228.828 C 505.837 225.254, 496.724 224.599, 489.669 227.129 M 286.108 227.370 C 285.299 228.344, 285.047 237.668, 285.235 259.620 L 285.500 290.500 300 290.673 C 313.856 290.839, 314.711 290.732, 319.243 288.268 C 326.822 284.148, 330.450 275.457, 327.782 267.805 C 326.849 265.127, 321.562 259.751, 318.847 258.719 C 317.860 258.344, 318.087 257.774, 319.695 256.586 C 331.885 247.578, 327.461 230.613, 312 227.078 C 305.094 225.499, 287.496 225.697, 286.108 227.370 M 565.220 227.180 C 563.465 228.935, 563.703 233.672, 565.582 234.393 C 566.452 234.727, 570.515 235, 574.611 235 L 582.059 235 581.968 262.138 C 581.915 277.671, 582.274 289.674, 582.806 290.206 C 583.318 290.718, 585.483 290.993, 587.618 290.818 L 591.500 290.500 591.500 262.750 L 591.500 234.999 599.807 235 L 608.115 235 607.807 230.750 L 607.500 226.500 586.970 226.230 C 571.843 226.032, 566.118 226.282, 565.220 227.180 M 649.600 228.185 C 649.341 229.458, 648.897 232.075, 648.612 234 C 648.328 235.925, 647.842 238.625, 647.533 240 C 647.224 241.375, 646.765 243.850, 646.514 245.500 C 646.070 248.416, 645.597 250.847, 644.470 256 C 644.169 257.375, 643.696 260.300, 643.420 262.500 C 643.144 264.700, 642.692 267.252, 642.417 268.170 C 641.630 270.794, 641.004 274.138, 640.419 278.845 C 640.121 281.235, 639.537 284.160, 639.120 285.345 C 637.700 289.382, 638.814 291, 643.014 291 C 647.307 291, 647.941 290.403, 648.621 285.722 C 648.878 283.950, 649.314 281.150, 649.589 279.500 C 650.497 274.052, 651.095 270.527, 651.456 268.500 C 651.652 267.400, 652.087 264.700, 652.422 262.500 C 652.758 260.300, 653.215 257.600, 653.439 256.500 C 653.664 255.400, 653.881 253.262, 653.923 251.750 C 653.992 249.284, 656 247.585, 656 249.993 C 656 250.970, 664.636 273.486, 669.733 285.797 C 672.782 293.161, 675.336 293.881, 677.556 288 C 683.328 272.713, 692.384 250.325, 693.110 249.550 C 693.644 248.980, 694.031 249.779, 694.077 251.550 C 694.119 253.172, 694.293 255.175, 694.463 256 C 694.744 257.356, 695.621 262.191, 696.550 267.500 C 696.743 268.600, 697.156 271.075, 697.469 273 C 697.782 274.925, 698.234 277.625, 698.474 279 C 698.713 280.375, 699.165 283.288, 699.477 285.472 C 700.208 290.584, 700.919 291.203, 705.618 290.818 C 709.732 290.481, 710.408 289.119, 708.833 284.345 C 708.442 283.160, 707.879 280.235, 707.581 277.845 C 706.988 273.075, 706.359 269.733, 705.570 267.170 C 705.288 266.252, 704.817 263.542, 704.525 261.149 C 704.232 258.756, 703.803 256.491, 703.572 256.116 C 703.340 255.741, 702.901 253.424, 702.596 250.967 C 702.291 248.510, 701.802 245.375, 701.510 244 C 701.218 242.625, 700.759 240.262, 700.490 238.750 C 700.220 237.238, 699.734 234.537, 699.408 232.750 C 699.083 230.963, 698.704 228.825, 698.568 228 C 698.431 227.175, 697.380 226.361, 696.233 226.190 C 693.837 225.834, 692.980 227.497, 684.483 249 C 677.358 267.030, 674.735 273, 673.941 273 C 673.576 273, 671.392 268.163, 669.087 262.250 C 658.305 234.595, 654.534 226.511, 652.265 226.185 C 650.645 225.953, 649.948 226.476, 649.600 228.185 M 768.551 231.250 C 766.338 236.218, 761.850 246.005, 757.201 256 C 747.561 276.727, 742.131 289.404, 742.582 290.133 C 742.877 290.610, 744.893 291, 747.063 291 C 750.982 291, 751.028 290.955, 754.138 284 L 757.268 277 772.457 277 L 787.646 277 790.930 284 C 794.025 290.596, 794.405 291, 797.525 291 C 802.061 291, 804.290 290.056, 803.114 288.633 C 802.598 288.010, 800.301 283.225, 798.009 278 C 795.717 272.775, 792.566 265.800, 791.006 262.500 C 788.134 256.421, 784.403 248.207, 778.741 235.500 C 777.026 231.650, 775.202 227.938, 774.689 227.250 C 772.848 224.785, 770.852 226.086, 768.551 231.250 M 842.246 227.154 C 840.489 228.911, 840.446 288.046, 842.200 289.800 C 842.860 290.460, 845.110 291, 847.200 291 L 851 291 851 276 C 851 261.158, 851.510 259.058, 854.193 262.843 C 855.354 264.480, 860.443 270.213, 873.863 285 C 876.109 287.475, 877.959 289.837, 877.973 290.250 C 877.988 290.663, 880.475 291, 883.500 291 C 887.532 291, 889 290.629, 889 289.608 C 889 288.439, 884.297 282.618, 878 275.993 C 871.099 268.733, 861.500 257.650, 861.500 256.943 C 861.500 256.463, 867.683 249.840, 875.241 242.226 C 889.888 227.468, 890.582 226, 882.912 226 C 879.495 226, 878.206 227.031, 865.362 240.036 L 851.500 254.072 851 240.286 L 850.500 226.500 846.996 226.204 C 845.068 226.042, 842.931 226.469, 842.246 227.154 M 928.667 226.667 C 928.300 227.033, 928 241.658, 928 259.167 L 928 291 947.250 290.985 C 957.837 290.976, 967.099 290.590, 967.830 290.126 C 968.586 289.647, 969.018 288.034, 968.830 286.391 L 968.500 283.500 953.250 283.224 L 938 282.948 938 274.056 C 938 269.165, 937.732 264.465, 937.404 263.611 C 936.888 262.265, 938.574 262.022, 950.154 261.780 L 963.500 261.500 963.500 258 L 963.500 254.500 950.500 254 L 937.500 253.500 937.500 244.500 L 937.500 235.500 953 235 L 968.500 234.500 968.822 231.690 C 969.445 226.261, 968.491 226, 948.044 226 C 937.753 226, 929.033 226.300, 928.667 226.667 M 1010.454 227.260 C 1010.188 227.953, 1010.090 242.465, 1010.235 259.510 L 1010.500 290.500 1014.750 290.807 L 1019 291.115 1019 278.557 L 1019 266 1026.269 266 L 1033.537 266 1039.763 278.500 L 1045.990 291 1049.913 291 C 1054.989 291, 1057.327 290.113, 1056.150 288.633 C 1055.654 288.010, 1053.551 284.350, 1051.475 280.500 C 1049.399 276.650, 1046.668 271.617, 1045.407 269.316 L 1043.113 265.131 1046.503 263.131 C 1051.187 260.367, 1055.775 253.685, 1056.553 248.492 C 1057.440 242.580, 1055.627 237.682, 1050.641 232.522 C 1047.386 229.154, 1045.366 227.997, 1041.201 227.118 C 1033.646 225.524, 1011.080 225.628, 1010.454 227.260 M 391.927 235.465 C 386.302 236.987, 385.110 237.649, 380.614 241.752 C 375.724 246.213, 373.734 250.489, 373.524 256.988 C 373.273 264.707, 374.659 269.241, 378.715 273.981 C 390.218 287.418, 411.917 284.485, 419.095 268.523 C 421.816 262.471, 421.184 252.697, 417.686 246.727 C 414.809 241.818, 408.124 236.497, 403.654 235.558 C 397.637 234.293, 396.298 234.283, 391.927 235.465 M 499.799 234.507 C 499.635 234.657, 497.475 235.053, 495 235.388 C 489.481 236.133, 483.545 240.148, 479.544 245.841 C 477.003 249.456, 476.475 251.264, 476.165 257.404 C 475.867 263.310, 476.192 265.456, 477.890 268.785 C 480.923 274.730, 486.597 279.810, 491.914 281.339 C 507.769 285.901, 522.361 276.360, 523.375 260.768 C 524.204 248.028, 516.645 237.953, 504.154 235.146 C 501.924 234.645, 499.964 234.357, 499.799 234.507 M 295 245.128 L 295 255.257 303.066 254.790 C 312.914 254.220, 315.793 252.110, 316.393 245.024 C 316.713 241.256, 316.358 240.205, 313.961 237.807 C 311.348 235.194, 310.594 235, 303.077 235 L 295 235 295 245.128 M 1028.217 235.746 L 1018.933 236.076 1019.217 246.788 L 1019.500 257.500 1029 257.644 C 1039.390 257.801, 1042.587 256.805, 1045.382 252.539 C 1047.420 249.429, 1047.742 244.255, 1046.090 241.168 C 1044.956 239.050, 1039.122 234.754, 1038 235.211 C 1037.725 235.323, 1033.322 235.564, 1028.217 235.746 M 771.179 246 C 770.646 247.375, 768.547 252.100, 766.515 256.500 C 764.484 260.900, 762.423 265.512, 761.935 266.750 L 761.050 269 772.500 269 L 783.950 269 783.077 266.750 C 782.596 265.512, 780.582 261.011, 778.601 256.746 C 776.621 252.481, 775 248.629, 775 248.187 C 775 247.744, 774.359 246.509, 773.575 245.441 C 772.190 243.555, 772.122 243.571, 771.179 246 M 295 273.122 L 295 283.245 304.037 282.813 C 311.992 282.432, 313.359 282.088, 315.453 279.940 C 316.823 278.535, 318.044 275.831, 318.331 273.565 C 318.769 270.115, 318.422 269.222, 315.515 266.315 C 312.276 263.076, 312.004 263, 303.600 263 L 295 263 295 273.122" stroke="none" fill="#0e1d2c" fill-rule="evenodd"/></svg>