<svg
  viewBox="0 0 362 36"
  fill="none"
  aria-hidden="true"
  focusable="false"
  class="logo logo-saintbernard"
  xmlns="http://www.w3.org/2000/svg"
>
  <path fill="#CD2027" d="M68.45 1.34H37.89V7.7h11.25v26.5h7.56V7.7h11.75V1.34Zm4.73 25.28c-.86-.69-2.09-1.04-3.69-1.04s-2.84.35-3.71 1.04c-.88.69-1.31 1.9-1.31 3.62 0 1.72.38 2.92 1.15 3.6.77.68 2.06 1.01 3.87 1.01 1.66 0 2.9-.36 3.73-1.08.83-.72 1.24-1.9 1.24-3.53.01-1.72-.42-2.93-1.28-3.62Zm39.37-9.38c2.12-.46 3.69-1.24 4.7-2.33 1.01-1.09 1.52-2.68 1.52-4.77v-.23c0-3.17-1.28-5.39-3.83-6.66-2.55-1.27-6.44-1.91-11.66-1.91H86.22v32.87h17.43c5.19 0 9.14-.71 11.85-2.14 2.7-1.43 4.06-3.88 4.06-7.35v-.14c0-2.24-.57-3.92-1.71-5.02-1.14-1.12-2.91-1.89-5.3-2.32ZM93.41 7.19h10.28c2.8 0 4.79.21 5.99.65 1.2.43 1.8 1.4 1.8 2.9v.18c0 1.51-.69 2.47-2.07 2.9-1.38.43-3.21.65-5.49.65H93.41V7.19Zm18.58 17.01c0 .95-.25 1.71-.76 2.28-.51.57-1.42.97-2.74 1.2-1.32.23-3.24.35-5.76.35h-9.31v-7.79h9.77c2.24 0 4 .1 5.28.3 1.27.2 2.18.58 2.72 1.13.54.55.81 1.35.81 2.4v.13h-.01Zm22.59-3.36h19.09v-6.27h-19.09V7.56h22.54V1.34h-29.59V34.2h30.56v-6.45h-23.51v-6.91Zm63.16-9.22c0-3.47-1.21-6.05-3.64-7.74-2.43-1.69-6.41-2.54-11.94-2.54h-16.37v32.87h7.33V23.33h9.9l6.96 10.88h8.32l-7.28-11.68c7.26-2.89 6.72-8.56 6.72-10.91Zm-24.62-4.01h8.94c2.8 0 4.84.3 6.13.9 1.29.6 1.94 1.79 1.94 3.57v.46c0 1.29-.35 2.25-1.04 2.88-.69.63-1.66 1.05-2.9 1.27-1.24.22-2.7.32-4.36.32h-8.71v-9.4Zm59.65 16.59-.32-.55-18.81-22.31h-7.33V34.2h7.1V11.02l.42.64 18.99 22.54h7.05V1.34h-7.1V24.2Zm26.67-22.86-15.72 32.87h7.93l3.23-7.19h17.15l3.37 7.19h7.79L267.24 1.34h-7.8Zm-1.84 19.63 5.72-12.63 5.9 12.63H257.6Zm98.42-15.76c-3.32-2.58-8.08-3.87-14.29-3.87h-14.52v32.87h14.94c6.02 0 10.67-1.26 13.95-3.78 3.27-2.52 4.91-6.56 4.91-12.12v-.74c-.01-5.66-1.67-9.78-4.99-12.36Zm-2.53 12.86c0 3.53-.91 6.03-2.74 7.49s-4.82 2.19-8.97 2.19h-7.24V7.74h6.92c4.24 0 7.31.76 9.2 2.28 1.89 1.52 2.84 4.05 2.84 7.58v.47h-.01Zm-34.03-6.45c0-3.47-1.21-6.05-3.64-7.74-2.43-1.69-6.41-2.54-11.94-2.54h-16.37v32.87h7.33V23.33h9.9l6.96 10.88h8.32l-7.28-11.68c7.26-2.89 6.72-8.56 6.72-10.91Zm-24.61-4.01h8.94c2.8 0 4.84.3 6.13.9 1.29.6 1.94 1.79 1.94 3.57v.46c0 1.29-.35 2.25-1.04 2.88-.69.63-1.66 1.05-2.9 1.27-1.24.22-2.7.32-4.36.32h-8.71v-9.4ZM27.88 15.74c-2.31-.66-5.23-1.11-8.76-1.36-2.77-.18-4.87-.41-6.32-.67-1.44-.26-2.43-.65-2.95-1.15-.52-.51-.78-1.18-.78-2.01 0-1.14.55-2.06 1.66-2.77 1.11-.71 3.1-1.06 5.99-1.06 2.92 0 5.22.35 6.91 1.04 1.41.58 2.37 1.63 2.88 3.14l7.08-2.59c-.93-2.17-2.35-3.86-4.29-5.07-2.89-1.8-7.04-2.7-12.45-2.7-5.1 0-8.92.95-11.46 2.84-2.54 1.89-3.8 4.36-3.8 7.4 0 2.34.53 4.16 1.59 5.49 1.06 1.32 2.63 2.3 4.73 2.95 2.09.65 4.64 1.08 7.65 1.29 2.95.22 5.29.43 7.01.65 1.72.22 2.94.58 3.66 1.08.72.51 1.08 1.3 1.08 2.37 0 1.35-.67 2.37-2.01 3.04-1.34.68-3.43 1.01-6.29 1.01-3.13 0-5.62-.45-7.47-1.34-1.62-.78-2.71-2.11-3.26-3.96l-7.3 2.67c.48 1.36 1.1 2.57 1.87 3.62 1.37 1.86 3.35 3.24 5.95 4.13 2.6.89 5.95 1.34 10.07 1.34 5.41 0 9.41-.98 12.01-2.95 2.6-1.97 3.88-4.64 3.85-8.02 0-2.27-.57-4.08-1.71-5.42-1.11-1.33-2.83-2.33-5.14-2.99Z"/>
</svg>