<svg width="601" height="85" viewBox="0 0 601 85" fill="none" xmlns="http://www.w3.org/2000/svg">
<g clip-path="url(#clip0_1356_7589)">
<path d="M600.5 83.9H517.2V0.599976L600.5 83.9Z" fill="#8C2232"/>
<path d="M66.4999 1.10004H52.4999V51.4C52.3999 61.9 43.8999 70.5 33.3999 70.5C28.3999 70.6 23.4999 68.5 19.9999 64.9C16.3999 61.4 14.3999 56.5 14.3999 51.5V1.20004H0.499947V51.5C0.399947 60.3 3.79995 68.7 10.1999 74.8C16.3999 81.1 24.6999 84.6 33.5999 84.5C42.3999 84.6 50.7999 81.2 56.9999 74.8C63.2999 68.6 66.7999 60.3 66.6999 51.5V1.20004H66.4999V1.10004ZM146.8 84.3V1.00003H132.8V56.5L90.5999 1.00003H80.6999V84.3H94.5999V28.6L136.9 84.3H146.8ZM205.3 1.10004H156.7V15H174V84.4H188V15H205.3V1.10004ZM282.6 1.10004H268.7V51.4C268.5 61.9 259.7 70.3 249.2 70.1C239 69.9 230.8 61.6 230.5 51.4V1.10004H216.6V51.4C216.6 69.7 231.3 84.4 249.6 84.4C267.9 84.4 282.6 69.7 282.6 51.4V1.10004ZM324.9 1.10004C316.1 1.00004 307.7 4.40002 301.6 10.8C295.3 17 291.8 25.3 292 34.1V51.4C291.8 69.7 306.4 84.6 324.7 84.8C342.5 85 357.3 71 358 53.1H344C343 63.6 333.7 71.4 323.2 70.3C313.4 69.4 305.9 61.2 305.9 51.3V34C305.9 23.5 314.5 14.9 325 14.9C334.9 14.9 343.1 22.5 344 32.2H357.9C357 14.8 342.4 1.10004 324.9 1.10004ZM369 1.10004H382.9V84.4H369V1.10004ZM434.9 84.3V74.5L403 42.6L434.9 10.7V0.900024H425L383.4 42.5L425 84.1H434.9V84.3ZM448.8 1.10004H458.3V12.8H448.8V1.10004ZM448.8 20.3H458.3V84.4H448.8V20.3ZM465.8 20.2H476.5V1.00003H486V20.3H502.6V28.5H486V67.9C486 72.9 489 76.1 494.1 76.1H502.7V84.5H491.6C483 84.5 476.6 78.1 476.6 69.4V28.6H465.9C465.8 28.5 465.8 20.2 465.8 20.2Z" fill="#142D51"/>
</g>
<defs>
<clipPath id="clip0_1356_7589">
<rect width="601" height="85" fill="white"/>
</clipPath>
</defs>
</svg>
