<svg width="200" height="200" viewBox="0 0 200 200" xmlns="http://www.w3.org/2000/svg">
  <!-- Air Handler Unit Icon - FB4CNF042 -->
  <defs>
    <linearGradient id="airHandlerGrad2" x1="0%" y1="0%" x2="0%" y2="100%">
      <stop offset="0%" style="stop-color:#71717a;stop-opacity:1" />
      <stop offset="100%" style="stop-color:#52525b;stop-opacity:1" />
    </linearGradient>
  </defs>
  
  <!-- Main unit body - vertical rectangle -->
  <rect x="50" y="30" width="100" height="140" rx="6" fill="url(#airHandlerGrad2)" stroke="#3f3f46" stroke-width="2"/>
  
  <!-- Top panel -->
  <rect x="60" y="40" width="80" height="25" rx="4" fill="#a1a1aa" opacity="0.2"/>
  <circle cx="70" cy="52.5" r="3" fill="#22c55e"/>
  <rect x="80" y="48" width="50" height="3" rx="1.5" fill="#3f3f46"/>
  <rect x="80" y="54" width="35" height="3" rx="1.5" fill="#3f3f46"/>
  
  <!-- Air flow slots (horizontal) -->
  <g opacity="0.4">
    <rect x="60" y="75" width="80" height="2" fill="#3f3f46"/>
    <rect x="60" y="82" width="80" height="2" fill="#3f3f46"/>
    <rect x="60" y="89" width="80" height="2" fill="#3f3f46"/>
    <rect x="60" y="96" width="80" height="2" fill="#3f3f46"/>
    <rect x="60" y="103" width="80" height="2" fill="#3f3f46"/>
    <rect x="60" y="110" width="80" height="2" fill="#3f3f46"/>
    <rect x="60" y="117" width="80" height="2" fill="#3f3f46"/>
    <rect x="60" y="124" width="80" height="2" fill="#3f3f46"/>
  </g>
  
  <!-- Control panel -->
  <rect x="60" y="140" width="80" height="20" rx="3" fill="#3f3f46"/>
  <circle cx="75" cy="150" r="4" fill="#a1a1aa"/>
  <circle cx="90" cy="150" r="4" fill="#a1a1aa"/>
  <rect x="105" y="147" width="25" height="6" rx="3" fill="#a1a1aa"/>
  
  <!-- Label -->
  <text x="100" y="20" font-family="system-ui" font-size="12" font-weight="600" fill="#3f3f46" text-anchor="middle">CARRIER</text>
  <text x="100" y="190" font-family="system-ui" font-size="9" fill="#71717a" text-anchor="middle">AIR HANDLER</text>
</svg>
